HIERARCHY
ROOT pelvis
{
  OFFSET 0 100 0
  CHANNELS 6 Xposition Yposition Zposition Zrotation Xrotation Yrotation
  JOINT pelvis_right_femur
  {
    OFFSET -10.78128 -3.44521 -0.5502486
    CHANNELS 3 Zrotation Xrotation Yrotation
    JOINT right_femur_tibia
    {
      OFFSET -0.8047443 -44.0398 -0.1307829
      CHANNELS 3 Zrotation Xrotation Yrotation
      JOINT right_tibia_foot
      {
        OFFSET 3.006224 -47.83518 -5
        CHANNELS 3 Zrotation Xrotation Yrotation
        End Site
        {
          OFFSET 0 -5 15
        }
      }
    }
  }
  JOINT pelvis_left_femur
  {
    OFFSET 10.78128 -3.44521 -0.5502486
    CHANNELS 3 Zrotation Xrotation Yrotation
    JOINT left_femur_tibia
    {
      OFFSET 0.8047443 -44.0398 -0.1307829
      CHANNELS 3 Zrotation Xrotation Yrotation
      JOINT left_tibia_foot
      {
        OFFSET -4.370144 -48.10324 -4.275266
        CHANNELS 3 Zrotation Xrotation Yrotation
        End Site
        {
          OFFSET 0 -5 15
        }
      }
    }
  }
  JOINT pelvis_spine1
  {
    OFFSET 0 6.468898 -3.129235
    CHANNELS 3 Zrotation Xrotation Yrotation
    JOINT spine1
    {
      OFFSET 0 23.15396 4.99043
      CHANNELS 3 Zrotation Xrotation Yrotation
      JOINT spine2
      {
        OFFSET 0 20.79997 -5.064912
        CHANNELS 3 Zrotation Xrotation Yrotation
        JOINT neck
        {
          OFFSET 0 14.38658 9.616178
          CHANNELS 3 Zrotation Xrotation Yrotation
          End Site
          {
            OFFSET 0 20 0
          }
        }
      }
      JOINT right_manubrium
      {
        OFFSET -5.722621 16.35077 3.967754
        CHANNELS 3 Zrotation Xrotation Yrotation
        JOINT right_clavicle
        {
          OFFSET -13.16364 1.694482 -4.693211
          CHANNELS 3 Zrotation Xrotation Yrotation
          JOINT right_humerus
          {
            OFFSET -28.5034 -0.3100689 -2.792744
            CHANNELS 3 Zrotation Xrotation Yrotation
            JOINT right_radius
            {
              OFFSET -25.15693 0.02248979 -1.271978
              CHANNELS 3 Zrotation Xrotation Yrotation
              End Site
              {
                OFFSET -15 0 0
              }
            }
          }
        }
      }
      JOINT left_manubrium
      {
        OFFSET 5.722621 16.35077 3.967754
        CHANNELS 3 Zrotation Xrotation Yrotation
        JOINT left_clavicle
        {
          OFFSET 13.16364 1.694482 -4.693211
          CHANNELS 3 Zrotation Xrotation Yrotation
          JOINT left_humerus
          {
            OFFSET 29.39168 -1.063119 -2.237045
            CHANNELS 3 Zrotation Xrotation Yrotation
            JOINT left_radius
            {
              OFFSET 24.59957 -0.9528479 0.9047498
              CHANNELS 3 Zrotation Xrotation Yrotation
              End Site
              {
                OFFSET 15 -0 -0
              }
            }
          }
        }
      }
    }
  }
}
MOTION
Frames: 17
Frame Time: 0.0416666666667
-1191.693 95.37779 2733.902 -8.574816 -3.506563 -64.7447 3.614773 -19.45687 -9.207865 -0 8.618058 -0 -21.84154 14.8204 3.739906 -3.583089 15.32763 -5.979276 -0 28.83347 -0 6.842369 -11.72422 14.14804 0.4888632 -2.498066 1.947571 1.28881 16.07325 -8.189436 0.9857597 22.90844 4.354585 3.025715 -22.14427 4.815571 -6.625965 -22.24788 11.54387 101.0201 13.77272 -21.9212 -0 0 4.342934 -21.67879 5.107894 8.771562 5.423365 -30.70222 -11.16211 -84.576 3.246794 12.01017 0 0 -22.80304 24.29712 13.06587 -18.55477
-1197.879 95.56684 2736.59 -8.845004 -3.536871 -65.06678 4.09571 -18.27599 -8.828324 -0 7.182587 -0 -21.1945 14.3038 3.22943 -3.28312 14.1621 -5.152939 -0 33.28072 -0 5.785069 -10.72799 13.57505 0.7117727 -2.296176 2.148636 1.226183 16.05086 -8.078459 1.046047 22.91757 4.25104 2.95899 -21.7991 4.73321 -6.591466 -21.93902 11.58552 100.9369 13.72403 -21.95285 -0 0 4.1607 -22.04288 5.611689 8.817871 5.305345 -30.51354 -11.07151 -84.48408 3.430339 11.80616 0 0 -23.03038 23.52274 12.81427 -17.66243
-1204.253 95.90369 2739.308 -9.138469 -3.616764 -65.47549 4.538259 -16.03425 -8.308159 -0 6.518211 -0 -20.26846 13.47767 2.673886 -2.896392 12.08372 -4.350626 -0 37.06721 -0 4.661955 -9.604472 13.21661 0.8712279 -2.060401 2.468122 1.072492 15.95512 -7.815997 1.119908 22.9389 4.154731 2.881405 -21.36959 4.677309 -6.486978 -21.74499 11.60033 100.5301 13.82616 -21.55819 -0 0 4.458174 -22.56198 6.162626 9.055029 5.158289 -30.01139 -10.85963 -84.56439 3.885307 12.03909 0 0 -22.69077 22.36042 12.58797 -16.27599
-1210.757 96.34502 2742.055 -9.359057 -3.668669 -65.95717 4.939845 -13.14876 -7.716188 -0 6.142113 -0 -19.25873 12.23914 2.171444 -2.41299 9.319548 -3.663912 -0 39.72693 -0 3.666647 -8.496726 13.11449 0.9734612 -1.833004 2.881609 0.8848775 15.80279 -7.46962 1.186528 22.94387 4.066142 2.800901 -20.9641 4.637203 -6.326791 -21.73562 11.60122 99.84216 14.10965 -20.83956 -0 0 5.206992 -23.0665 6.681195 9.407971 5.014253 -29.32659 -10.54271 -84.83171 4.526752 12.72554 0 0 -21.94674 21.04542 12.42236 -14.66752
-1217.319 96.81431 2744.823 -9.466646 -3.662414 -66.50182 5.281558 -9.894609 -7.117015 -0 5.87071 -0 -18.30847 10.6231 1.801078 -1.854122 6.071209 -3.141224 -0 40.96328 -0 2.922191 -7.505621 13.27851 1.018793 -1.642546 3.361512 0.693061 15.61426 -7.080134 1.234219 22.92246 3.986246 2.723708 -20.64331 4.60575 -6.13434 -21.9476 11.59444 98.92662 14.55119 -19.85657 -0 0 6.3612 -23.47557 7.106394 9.832597 4.888013 -28.5478 -10.15014 -85.29237 5.262781 13.85064 0 0 -20.88732 19.74302 12.33961 -13.03744
-1223.865 97.22529 2747.6 -9.464621 -3.601448 -67.09935 5.542148 -6.442064 -6.569564 -0 5.704596 -0 -17.51477 8.759449 1.615319 -1.25768 2.516453 -2.79438 -0 40.66013 -0 2.494898 -6.686304 13.69182 1.007088 -1.505975 3.879111 0.5072092 15.41359 -6.669398 1.258337 22.87776 3.914629 2.654278 -20.43103 4.576741 -5.940932 -22.3902 11.5821 97.84993 15.08697 -18.64549 -0 0 7.855237 -23.77454 7.394693 10.30727 4.782084 -27.73541 -9.720737 -85.93937 5.993828 15.3694 0 0 -19.55767 18.56742 12.3503 -11.5343
-1230.328 97.49839 2750.382 -9.379076 -3.505584 -67.73763 5.708947 -2.878427 -6.116164 -0 5.72065 -0 -16.92744 6.799689 1.635381 -0.6611464 -1.212509 -2.611909 -0 38.84768 -0 2.405576 -6.052686 14.32411 0.9400811 -1.430271 4.41078 0.3260232 15.22243 -6.246169 1.258946 22.81874 3.84952 2.595035 -20.3266 4.54495 -5.776338 -23.0542 11.56405 96.67612 15.64285 -17.2297 -0 0 9.620982 -23.98544 7.521996 10.8251 4.69257 -26.92563 -9.290613 -86.75554 6.63279 17.22343 0 0 -17.97867 17.58458 12.45646 -10.25165
-1236.649 97.56793 2753.17 -9.237087 -3.395399 -68.40242 5.78208 0.7662941 -5.772074 -0 5.990504 -0 -16.55042 4.850379 1.853202 -0.09086558 -5.042402 -2.573431 -0 35.64662 -0 2.639774 -5.590645 15.14408 0.8214013 -1.414441 4.942809 0.1443827 15.05288 -5.811711 1.238588 22.7537 3.789244 2.546436 -20.31721 4.507707 -5.657741 -23.91944 11.53928 95.4489 16.16501 -15.62632 -0 0 11.60547 -24.13753 7.485419 11.38545 4.614354 -26.13227 -8.881331 -87.72111 7.127811 19.35786 0 0 -16.16318 16.8117 12.65477 -9.220665
-1242.779 97.38395 2755.969 -9.054791 -3.284265 -69.07829 5.770311 4.466704 -5.522696 -0 6.548735 -0 -16.34666 2.956828 2.234557 0.4346173 -8.924908 -2.660501 -0 31.24884 -0 3.151761 -5.276489 16.11975 0.6559906 -1.451143 5.468246 -0.04066233 14.90412 -5.367087 1.201249 22.68729 3.734677 2.507739 -20.38529 4.467361 -5.582866 -24.95011 11.50697 94.18977 16.63396 -13.86185 -0 0 13.76327 -24.24846 7.304446 11.98367 4.544428 -25.3536 -8.496768 -88.81322 7.473251 21.71216 0 0 -14.14014 16.22177 12.93577 -8.412451
-1248.682 96.91762 2758.787 -8.844757 -3.181783 -69.74937 5.680654 8.126532 -5.331382 -0 7.421576 -0 -16.24448 1.158875 2.717245 0.8884934 -12.74705 -2.85881 -0 25.98909 -0 3.854454 -5.091372 17.1997 0.4508063 -1.526143 5.973999 -0.2276619 14.76536 -4.921178 1.153545 22.62349 3.691538 2.47824 -20.50541 4.433497 -5.531525 -26.07195 11.46684 92.92335 17.05213 -12.00359 -0 0 16.0111 -24.32746 7.022763 12.60098 4.482102 -24.5859 -8.132808 -89.98589 7.704955 24.17178 0 0 -11.98909 15.75423 13.27482 -7.753304
-1254.35 96.17829 2761.631 -8.644595 -3.107852 -70.39809 5.505722 11.51547 -5.161187 -0 8.710815 -0 -16.15297 -0.3912192 3.210295 1.216815 -16.21974 -3.150254 -0 20.47921 -0 4.602912 -5.025823 18.28275 0.2167017 -1.616217 6.422493 -0.4143038 14.6272 -4.495604 1.107633 22.5742 3.670649 2.458578 -20.63155 4.422668 -5.479676 -27.14256 11.41783 91.7279 17.4055 -10.19668 -0 0 18.16033 -24.40421 6.705773 13.20011 4.425662 -23.84074 -7.799454 -91.13238 7.879428 26.49983 0 0 -9.867292 15.33581 13.61641 -7.158149
-1259.83 95.23765 2764.505 -8.546453 -3.106777 -71.00097 5.217455 14.29411 -5.007661 -0 10.68098 -0 -15.99799 -1.333432 3.611792 1.336731 -18.85267 -3.502564 -0 15.61492 -0 5.207637 -5.075533 19.21062 -0.03217698 -1.691053 6.743688 -0.6059478 14.49712 -4.1196 1.082083 22.5674 3.684226 2.451344 -20.68948 4.452847 -5.424337 -27.95702 11.35454 90.77455 17.62125 -8.662391 -0 0 19.89717 -24.56408 6.421129 13.73597 4.3678 -23.15495 -7.54264 -92.0656 8.038782 28.32611 0 0 -7.984101 14.91661 13.86983 -6.58303
-1265.224 94.23466 2767.42 -8.673705 -3.236678 -71.52367 4.780311 16.17397 -4.9162 -0 13.70038 -0 -15.76793 -1.204411 3.854379 1.171248 -20.15058 -3.876319 -0 12.19932 -0 5.520141 -5.238615 19.83174 -0.2850405 -1.726563 6.86077 -0.8185627 14.4035 -3.814193 1.094622 22.63974 3.739111 2.460064 -20.60344 4.533403 -5.397212 -28.33655 11.26649 90.27722 17.57889 -7.605179 -0 0 20.90641 -24.93024 6.200368 14.18066 4.297269 -22.57793 -7.434853 -92.58279 8.177149 29.29468 0 0 -6.497038 14.50774 13.94684 -6.067774
-1270.654 93.33931 2770.389 -9.091492 -3.528894 -71.92232 4.181353 17.07566 -4.955672 -0 17.96515 -0 -15.52873 0.2490706 3.946671 0.6998193 -19.92022 -4.252589 -0 10.39306 -0 5.541537 -5.522094 20.10205 -0.5405458 -1.722682 6.7387 -1.064494 14.37748 -3.58303 1.149149 22.81043 3.832577 2.487048 -20.35266 4.658556 -5.442941 -28.24798 11.14612 90.35426 17.19519 -7.086083 -0 0 21.07475 -25.56927 6.015392 14.53533 4.209927 -22.14729 -7.527547 -92.59577 8.236849 29.29184 0 0 -5.422543 14.18702 13.82778 -5.724719
-1276.212 92.6992 2773.425 -9.752001 -3.963481 -72.15318 3.44737 17.07293 -5.173578 -0 23.2818 -0 -15.38551 2.904288 3.958537 -0.03213615 -18.31215 -4.64317 -0 9.709675 -0 5.413046 -5.94706 20.09327 -0.801292 -1.702631 6.398041 -1.334353 14.43263 -3.424957 1.232638 23.06558 3.955495 2.532511 -19.99079 4.812097 -5.583554 -27.80347 10.99825 90.96535 16.48921 -7.027029 -0 0 20.51998 -26.42482 5.806896 14.80714 4.116568 -21.88613 -7.81971 -92.16951 8.14718 28.47283 0 0 -4.69188 14.05902 13.57504 -5.678115
-1281.933 92.40732 2776.535 -10.525 -4.48213 -72.18338 2.634824 16.2059 -5.572194 -0 29.11901 -0 -15.42145 6.382211 3.962797 -0.9464985 -15.59039 -5.072796 -0 9.534255 -0 5.296903 -6.545278 19.90755 -1.06332 -1.693943 5.885671 -1.593736 14.55956 -3.352783 1.324801 23.36711 4.099735 2.595337 -19.60925 4.979096 -5.801626 -27.14703 10.83973 91.97464 15.57261 -7.333827 -0 0 19.43569 -27.34318 5.53864 14.97803 4.03965 -21.8168 -8.267787 -91.43696 7.881623 27.07868 0 0 -4.283908 14.19986 13.28093 -6.000384
-1287.797 92.48923 2779.707 -11.23467 -4.999416 -71.99871 1.820953 14.41549 -6.100868 -0 34.69761 -0 -15.65834 10.14971 3.993799 -1.94909 -12.01464 -5.563322 -0 9.453317 -0 5.29816 -7.346043 19.62517 -1.310875 -1.715447 5.258196 -1.78804 14.72619 -3.397513 1.40538 23.66243 4.261002 2.672997 -19.30612 5.151457 -6.038796 -26.38807 10.69506 93.19917 14.62855 -7.965695 -0 0 18.00077 -28.11284 5.22672 14.99877 4.007646 -21.96219 -8.796151 -90.53608 7.494089 25.32646 0 0 -4.278991 14.62376 13.02832 -6.675355
